<svg id="Layer_1" data-name="Layer 1" xmlns="http://www.w3.org/2000/svg" viewBox="0 0 463.51 509.89"><defs><style>.cls-1{fill:#ed1c24;}</style></defs><title>hoc-sinh</title><path class="cls-1" d="M487.22,384.24c-.12-16.23-12-28-28.18-28.1-38.32-.26-76.64-.11-115-.07-5.71,0-8.75,2.65-8.86,7.23-.12,4.79,3,7.5,9,7.64,4.58.1,9.17,0,13.86,0v14.57q-25.78-4.51-51.38-9a7,7,0,0,1-2.59-1.31c-7.7-5.33-11.05-12.7-10.78-22,.08-2.74.9-3.95,3.27-5.25,7.84-4.26,16-8.24,23.09-13.54,28-20.84,46.14-49,58.44-81.22.68-1.77,1.41-3.51,2.11-5.25,23.46,8.77,40.89-5.14,45.72-19.61a32.2,32.2,0,0,0-1.17-24.7c-6.14-13.09-17.11-19.12-31.28-20,.3-2.09.46-3.57.73-5,4.91-25.89,6.79-51.93,3.82-78.2a136.15,136.15,0,0,0-10.64-40.71c-2-4.52-6.18-6.2-10.15-4.45-3.72,1.63-5.14,5.61-3.55,10.13.77,2.19,1.72,4.31,2.51,6.49,8.79,24.43,9.22,49.69,7.33,75.15-.46,6.14-1.41,12.25-2.14,18.37a14.24,14.24,0,0,1-3.37-4.85c-.81-1.63-1.71-3.21-2.47-4.87-10.79-23.73-29.26-37.09-54.73-42.11-41.75-8.24-83.29-6.89-125.11-.24-32.68,5.19-55.13,21.82-66.29,53.19a15,15,0,0,1-1.62,2.58,153.2,153.2,0,0,1-6.54-55.9c2-26.1,16.46-41.63,42.44-44.27a141.84,141.84,0,0,1,28.24.42c13.69,1.36,13.71,1.8,16.36-11.36,3.39-16.79,14.43-26.8,29.53-32.89,20.9-8.43,42.76-10.27,65-8.15,20.15,1.92,38.41,8.5,53.4,22.74,3.61,3.42,8.11,3.17,11-.11s2.6-7.29-.83-10.66A90.05,90.05,0,0,0,332.29,8.1C308-.32,283-.68,258.15,4.05a141,141,0,0,0-32.9,10.64C208.68,22.42,197.88,35.77,193.8,54c-11.1,0-21.89-.75-32.55.15-27.81,2.34-46.92,19.49-53.06,46.64-3.61,16-3,32-.23,47.93,2.05,11.68,5,23.21,7.54,34.82-24.37,6.58-35.72,20.95-31.64,40.29a32.78,32.78,0,0,0,13.49,20.76c10.43,7.34,21.76,7.85,33.51,3.34,1.56,4,2.62,7.73,4.37,11.07,6.77,12.88,13.55,25.76,20.88,38.32,1.21,2.08,5.24,3.64,7.83,3.46,2.05-.15,4.86-3,5.54-5.25.63-2.06-.53-5.24-1.89-7.25a186.47,186.47,0,0,1-29.86-74.63c-1.21-7.25-2.75-15.17-1-22,2.64-10.65,7.66-20.76,12.14-30.89,6.88-15.57,18.79-25.11,35.43-29.18a311.27,311.27,0,0,1,134.13-3.23C338.85,132.2,353.51,143,362,162c3.7,8.32,7.87,16.49,10.82,25.06A41.07,41.07,0,0,1,374.67,203a131,131,0,0,1-3.72,22c-9.41,38.21-27.23,71.49-58.68,96.17-20.88,16.38-44.55,23.92-71.22,19.37-19-3.26-35.07-12.59-49.47-25.1-4.35-3.78-8.82-3.71-11.79-.14s-2.52,8,2,11.21c10.27,7.21,20.52,14.6,31.53,20.53,5.28,2.84,5.9,5.63,5.42,10.63-.92,9.44-7.13,16.29-14.58,18.32-16.54,4.49-33.76,6.42-50.73,9.39V370.78c5.6,0,10.89.24,16.16-.08,4-.24,6.3-2.87,6.45-6.9.16-4.28-2.17-6.82-6.34-7.56a25.57,25.57,0,0,0-4.47-.19q-55.25,0-110.48,0C35.66,356.07,24,367.69,24,386.72c0,37.83,0,75.65-.08,113.48,0,4.48,1.1,8.07,4.8,10.69h5c4.22-2.17,5.3-5.72,5.28-10.29q-.16-56.19-.06-112.4c0-12.57,4.57-17.21,17-17.23q20.88,0,41.78,0h5.66c0,11.26.16,21.86-.17,32.44,0,1.52-2.18,3.42-3.8,4.38-13.53,8-25.77,17.51-34.62,30.78a64.48,64.48,0,0,0-11.14,36c-.06,8.62.18,17.25-.11,25.86-.15,4.59,1.1,8.08,5.09,10.44h5c3.92-2.44,5.1-5.95,5-10.51-.16-10.44-.78-21,.44-31.3,2.51-21.21,16.37-34.65,34.31-46.18v5.94c0,23.87.1,47.74-.08,71.61,0,4.58,1.09,8.08,5.09,10.44h5c3.92-2.44,5-6,5-10.52-.13-41-.08-81.94-.08-122.91V371.3h19.91v6.24c0,41,.06,81.94-.08,122.91,0,4.57,1.09,8.08,5.09,10.44h5c3.91-2.44,5-6,5-10.51-.15-31.31,0-62.63-.17-93.95,0-3.46.92-5,4.32-5.71,14.23-2.93,28.42-6.07,43.49-9.32-.43,7.18-.75,13.22-1.16,19.26-.39,5.78-.89,11.56-1.29,17.34-.52,7.55,4.23,11.08,11.4,8.48,1.86-.68,3.69-1.45,5.54-2.17l6.19-2.39c2.67,6.66,5.41,13.14,7.78,19.75.48,1.33-.32,3.2-.77,4.76-4,14-7.92,28-12.27,41.9-1.66,5.31-.94,9.32,3.59,12.56h5c2-2.72,4.74-5.18,5.7-8.21,4.09-12.93,7.73-26,11.33-39.09.88-3.2,2.14-4.68,5.73-4.43a123.8,123.8,0,0,0,15.41,0c3.54-.19,5.2.82,6.19,4.49q5.21,19.41,11.24,38.6c1,3.11,3.37,5.76,5.12,8.62h5c5.48-3.88,6.1-5.58,4.2-12.16-4-13.84-8.19-27.62-11.85-41.54-.8-3.05-.29-6.76.64-9.86,1.51-5.05,3.86-9.84,6.08-15.3,3.33,1.28,6.51,2.46,9.66,3.71,9.45,3.74,13.74.86,13.2-9.13-.48-8.94-1.27-17.86-1.85-26.79-.15-2.29,0-4.59,0-7.86,8.44,1.52,16.68,2.86,24.85,4.52,6.32,1.29,12.53,3.16,18.86,4.4,3.35.66,4,2.32,4,5.46-.1,31.35,0,62.69-.14,94,0,4.55,1.08,8.08,5,10.51h5c4-2.36,5.1-5.87,5.09-10.45-.14-41-.08-81.94-.08-122.91V371.3h19.91v6.17c0,41,.05,81.93-.08,122.9,0,4.56,1.08,8.09,5,10.52h5c4-2.37,5.13-5.86,5.09-10.44-.18-23.71-.08-47.41-.08-71.12V423c19.81,13.06,34.07,28.37,34.57,52.69.17,8.45.22,16.92,0,25.36-.13,4.49,1.34,7.7,5.25,9.82h5c3.67-2.62,5.05-6.14,4.83-10.66-.61-12.56,0-25.27-1.69-37.67-2.29-17-12.12-30.3-25.07-41.09-6.21-5.17-13.27-9.3-19.83-14.07-1.27-.92-2.83-2.57-2.86-3.92-.24-10.6-.14-21.2-.14-32.27,1.9-.09,3.51-.23,5.12-.23q21.64,0,43.28,0c11.12,0,16,5,16,16.19q0,56.71-.05,113.43c0,4.57,1.05,8.12,5.28,10.29h5c1.58-2.9,4.5-5.79,4.52-8.7C487.42,462.88,487.52,423.56,487.22,384.24ZM385.17,229.33c2-9.72,3.7-19.5,5.59-29.7a17.31,17.31,0,0,1,19.13,7.74,18.22,18.22,0,0,1-1,21.37,18.65,18.65,0,0,1-20.56,6.1C385.45,233.87,384.53,232.45,385.17,229.33ZM123,234.7a18.3,18.3,0,0,1-19.64-4.58c-5.41-5.76-6.71-12.57-3.77-19.78s8.71-11,18.41-11.54c.61.75,2.67,2.15,3,3.89,1.8,8.91,3,17.94,4.78,26.85C126.44,232.53,125.66,233.73,123,234.7ZM232.69,364.25c.36-3.1.92-6.17,1.29-8.57h44.25c2.06,6.46,1.66,12.81-4.17,19-6.64,7.06-12.13,15.2-18.59,23.46-7.8-10-15.34-19.55-22.65-29.26C232.06,367.86,232.51,365.79,232.69,364.25ZM214,418.74c.69-10.54.92-20.31,2.21-29.94.39-2.87,3.75-5.35,6.23-8.65l21,26.88Zm53.85,24.57c-4,2.84-11.42,1-17.33,1-9.83-.11-7.11,1.7-11-7.62-1.34-3.19-2.59-6.41-4.15-10.27,6.49-2.61,12.83-5.19,19.22-7.67A3.67,3.67,0,0,1,257,419c6.12,2.38,12.22,4.82,18.85,7.46C273.12,432.69,272.13,440.28,267.89,443.31ZM267.51,407c6.91-8.87,13.59-17.43,20.35-26.09,4.79,3,7.44,6.72,7.52,12.51.1,8.07.9,16.13,1.47,25.25Z" transform="translate(-23.89 -1)"/><path class="cls-1" d="M255.57,303.1c-13.39-.46-23.39-6.45-29.64-18.36-2.66-5.06-1.49-9.59,2.64-11.58,4-1.92,7.88-.29,10.51,4.56,3.52,6.52,8.75,10.29,16.3,10.31s12.85-3.57,16.37-10.15c2.74-5.1,6.84-6.75,10.89-4.6s5,6.53,2.26,11.67C278.67,296.66,268.8,302.56,255.57,303.1Z" transform="translate(-23.89 -1)"/><path class="cls-1" d="M255,227c9,.23,15.41,4.2,19.34,12,2.08,4.1.81,8.26-2.81,10.28s-7.34.91-10-2.67c-4.65-6.38-7.57-6.36-12.33.08-2.64,3.56-6.5,4.54-10,2.53s-4.74-5.89-2.85-9.89C240.18,231.43,246.6,227.48,255,227Z" transform="translate(-23.89 -1)"/></svg>