<svg id="Layer_1" data-name="Layer 1" xmlns="http://www.w3.org/2000/svg" viewBox="0 0 500.63 500.71"><defs><style>.cls-1{fill:#ed2024;}</style></defs><title>lop-hoc</title><path class="cls-1" d="M247.94,497.39a9.75,9.75,0,1,0,9.69-9.93A9.62,9.62,0,0,0,247.94,497.39Z" transform="translate(-7.37 -6.34)"/><path class="cls-1" d="M7.37,488.41c1.29-4.68,2.32-9.45,3.92-14a68.08,68.08,0,0,1,64.16-45.6c3.58,0,7.15,0,10.87-.34-13.51-3.38-24.48-10.38-32-22.1a47.59,47.59,0,0,1-6.51-37.89c5.46-23.48,27.33-39.07,52.07-37.38,22.44,1.53,42.13,21,44.3,43.73C146.53,400,131,421,104.47,428.57c29.07-2,52.44,8.06,69.16,33,18-27.4,44-35.64,75-32.9C235,425,224,417.94,216.45,406.1c-7.61-12-9.68-25.07-6-38.84,6.24-23.14,27-37.68,51.47-36.19,22.24,1.36,41.51,20,44.44,43.06,3.13,24.62-11.37,44.55-39.69,54.7,30.82-2.85,56.92,5.16,75,32.74,16.68-24.81,40-35.07,69.23-32.83-30.86-12-44.3-32.55-38.73-59.42C377,346,398.46,330,423.59,331.05c22.49.92,42.63,20.13,45.11,43.37,2.3,21.56-9.48,46.29-39.64,53.88,7.69.5,15.26.47,22.66,1.58,31.34,4.7,56.51,34.47,56.28,66.14C508,503.16,504.32,507,497.25,507q-97.29,0-194.58,0c-6.67,0-10.84-4-10.72-10,.11-5.75,4.23-9.48,10.68-9.51,9.27-.05,18.53,0,27.84,0-2.26-18.36-19.83-35.58-39.1-38.17a129.77,129.77,0,0,0-18.5-.92c-16.28.13-32.64-.4-48.8,1.07-19.31,1.76-36.76,19.51-39.18,38,9.14,0,18.23,0,27.32,0,7.1,0,11.34,3.82,11.23,10-.11,5.91-4.29,9.54-11.17,9.55q-96.79,0-193.6.08c-5.49,0-8.87-2.42-11.3-6.9Zm155-1.09c-3.18-19-19.93-36.17-39-37.84-17.13-1.5-34.49-1.25-51.71-.67-6.4.21-13.14,2.68-18.94,5.65-13.24,6.79-21.3,18-24.62,32.86Zm324.55-.08c-2.42-18.13-19.65-36.21-38.67-37.69a364.1,364.1,0,0,0-56.53,0c-19,1.48-36.4,19.8-38.59,37.68ZM66,379.54c-.22,15.79,13,29.35,28.88,29.66s29.37-12.84,29.77-28.77-13-29.74-29.12-29.88C79.75,350.41,66.27,363.65,66,379.54ZM257.73,409.2A29.76,29.76,0,0,0,287,380c.05-16-13.62-29.6-29.62-29.4s-29.14,13.65-29,29.48S241.92,409.24,257.73,409.2Zm162.2-58.65a29.33,29.33,0,0,0-.09,58.65c16,.11,29.64-13.55,29.5-29.53A29.71,29.71,0,0,0,419.93,350.55Z" transform="translate(-7.37 -6.34)"/><path class="cls-1" d="M260.63,6.34q33.78,15.15,67.56,30.29,53.22,23.7,106.51,47.22c6.35,2.78,9,6.81,8.9,13.91-.3,33.73-.1,67.46-.19,101.19,0,3.07.69,4.71,3.7,6.29,10.34,5.42,15.82,14.22,15.89,26,.08,12.55.05,25.1,0,37.65,0,7.5-3.6,11.15-11,11.17q-18.33.07-36.66,0c-7.39,0-10.93-3.67-11-11.21,0-12.39,0-24.77,0-37.16s5.72-21,16.27-26.92c1.39-.79,3.14-2.59,3.14-3.94.18-30.13.14-60.27.14-91.33l-58.7,26.05c0,18.61-.16,37,.09,55.42.08,6.27-2.47,9.9-8.1,12.38q-46.41,20.45-92.66,41.24a15.22,15.22,0,0,1-13.5.08q-46-20.72-92.27-41c-6.16-2.7-8.92-6.54-8.77-13.46.37-16.62,0-33.25.22-49.86,0-3.64-1-5.43-4.36-6.9-22-9.61-44-19.52-66-29.2-4.52-2-7.91-4.54-7.94-9.92s3.3-8,7.83-10q85.38-37.87,170.68-75.9c1.47-.65,2.87-1.44,4.31-2.17ZM385,84.58l0-1c-.73-.36-1.43-.76-2.17-1.09q-61-27.15-122.12-54.17c-1.84-.81-4.74-.48-6.68.37q-70.46,31.1-140.79,62.44l-6.87,3c2,1,3,1.63,4.13,2.13q72.15,32.09,144.36,64c1.83.81,4.73.46,6.68-.4q51.77-22.78,103.4-45.86l20.25-9-.21-1h-82.8c-14.66,0-29.32.07-44,0-7.52,0-12.3-6.72-9.62-13.26,1.91-4.66,5.61-6.28,10.53-6.27q60.36.12,120.72,0Zm-39.24,59.87c-2.1.87-3.72,1.5-5.31,2.2-25.4,11.26-50.83,22.47-76.16,33.87a14.66,14.66,0,0,1-13,0c-23.84-10.77-47.79-21.32-71.71-31.94-3.08-1.36-6.19-2.65-9.81-4.2,0,14-.07,27.29.13,40.61,0,1.08,1.67,2.57,2.89,3.12q40.71,18.26,81.54,36.23c1.72.76,4.28,1.13,5.9.42q41.55-18.17,82.92-36.76a4.86,4.86,0,0,0,2.54-3.39C345.78,171.43,345.71,158.25,345.71,144.45ZM443.5,260.38V234c0-.81,0-1.63,0-2.44-.39-5.43-4-9.46-8.93-10-4.59-.5-9.92,2.91-10.18,7.85-.54,10.29-.16,20.63-.16,31Z" transform="translate(-7.37 -6.34)"/><path class="cls-1" d="M247.94,497.39A9.75,9.75,0,1,1,258,507,9.61,9.61,0,0,1,247.94,497.39Z" transform="translate(-7.37 -6.34)"/></svg>