<svg id="Layer_1" data-name="Layer 1" xmlns="http://www.w3.org/2000/svg" viewBox="0 0 508.41 508.14"><defs><style>.cls-1{fill:red;}</style></defs><title>teacher</title><path class="cls-1" d="M10.18,508.14c-2.07-1.31-4.48-2.29-6.15-4a11.87,11.87,0,0,1-2.7-13.71,12.32,12.32,0,0,1,12-8c12.9-.12,25.8-.05,38.7-.05h5.8V356.74c-6.07.58-12.09,1.82-18,1.62C18.49,357.62.66,340,.43,318.69,0,281.32-.3,243.93.43,206.57c.75-36.52,31.3-65.31,69.05-67.44C82.07,138.42,93,140.2,101.87,150c3.64,4,8.28,7.08,12.5,10.54,9.65,8,19.92,8,29.71,0,6.91-5.65,13.6-11.58,20.67-17,2.5-1.93,5.78-3.79,8.8-4,14.39-.83,28.78-.61,42.58,4.52a80.48,80.48,0,0,1,29.06,18.47c7,7,14.15,13.92,21,21.09a9.61,9.61,0,0,0,7.82,3.15c12.24-.15,24.48-.33,36.71.07a60.85,60.85,0,0,1,15.48,2.8c3.25,1,5,.43,7.1-2q28.76-32.52,57.83-64.75a19.94,19.94,0,0,1,8.43-5.59c5.37-1.67,10.79,1,13.61,5.7,2.95,4.89,2.64,10.43-1.43,15.18-6.89,8-14,15.85-21.07,23.74q-19.65,22-39.34,44c-1.75,1.94-2.18,3.36-1.08,6,11.48,27.53-6.29,56.76-36.12,58.19-21.28,1-42.65.35-64,.16-11.11-.1-20.44-4.82-28.26-12.58-5.64-5.59-11.22-11.23-16.85-16.83-1.12-1.1-2.35-2.1-4.45-4V482.38H403.24c10.14,0,16.31,6.45,14.83,15.3-.89,5.29-4.82,7.92-8.91,10.45Zm164.11-26V241c0-12.42,5.14-21.76,16.71-26.86,10.54-4.65,21.75-1.92,30.81,7.07,5.86,5.82,11.81,11.58,17.52,17.56a19.06,19.06,0,0,0,14.61,6.1q28,0,56.07-.07a23.85,23.85,0,0,0,7.77-1.24c7.33-2.61,11.34-10,10-17.9-1.24-7.28-8.26-13.07-16.45-13.14q-22.57-.2-45.15,0a16.66,16.66,0,0,1-12.8-5.33c-8.32-8.51-16.83-16.85-25.22-25.29-7.9-8-17.18-13.42-28.2-15.61-11.63-2.32-22.94-3.13-31.67,7.46-2.07,2.51-5,4.32-7.55,6.42-19.59,16.07-43.48,16.08-63,0-5.24-4.31-10.39-8.72-15.68-13a9.17,9.17,0,0,0-4.29-2.11c-27.93-3.28-51.59,17.77-51.67,46-.09,29.11,0,58.22,0,87.33,0,6.28-.14,12.57,0,18.85a15.87,15.87,0,0,0,16,15.57c9,0,15.49-6.42,15.76-15.55.15-5.12.36-10.25.37-15.37q.06-36.47,0-72.94a40.56,40.56,0,0,1,.4-6.42,12.27,12.27,0,0,1,11.64-10.31c8.44-.45,13.64,5.16,13.65,15q0,49.41,0,98.78V482h32.35V328.28a45.24,45.24,0,0,1,.12-5.46A12.7,12.7,0,0,1,128,311.59c6.27-.49,11.58,2.86,13.29,8.81a28.66,28.66,0,0,1,.82,7.83q.07,73.92,0,147.86v6Z" transform="translate(0.01)"/><path class="cls-1" d="M508.4,304.69a8.19,8.19,0,0,0-.85,1.7c-4.93,19.43-19.39,30.82-39.58,30.85q-61,.09-122.07,0H242.68a30.88,30.88,0,0,1-7.36-.7A12.52,12.52,0,0,1,226,323.1a12.67,12.67,0,0,1,11.71-11.49c2-.16,4-.1,6-.1H465.42c12.94,0,17.21-4.28,17.21-17.24V42.69c0-12.3-4.4-16.7-16.71-16.7H217.31c-6.48-.29-11.45-4.2-12.61-9.89-1.33-6.49,1.58-12,7.87-14.9.71-.33,1.38-.76,2.06-1.15h259c1.08.33,2.14.74,3.24,1,13.76,3,23.41,10.9,28.77,24,1.05,2.55,1.82,5.22,2.72,7.83Z" transform="translate(0.01)"/><path class="cls-1" d="M137.22,0c4.09,1.14,8.26,2.07,12.27,3.46a62.33,62.33,0,0,1,41.11,69.4c-5.23,30-32,52.23-62,51.64-31.6-.63-56.92-23.16-61.07-54.27A62.2,62.2,0,0,1,118.12,1a24.46,24.46,0,0,0,3.22-1ZM92.63,62.08A36.57,36.57,0,1,0,129.49,25.8,36.57,36.57,0,0,0,92.63,62.08Z" transform="translate(0.01)"/><path class="cls-1" d="M335.2,58.52c22,0,44-.07,66,0,10.65,0,17,9.76,12.42,18.64-2.64,5.06-7.1,7.1-12.68,7.09H270.51c-8.93,0-14.79-5.44-14.57-13.27.21-7.32,5.75-12.43,13.84-12.45C291.56,58.48,313.38,58.52,335.2,58.52Z" transform="translate(0.01)"/><path class="cls-1" d="M301.88,142.48c-10.24,0-20.48.17-30.72-.1a22.16,22.16,0,0,1-9.43-2.21c-4.94-2.59-6.88-8.64-5.37-14.19A12,12,0,0,1,268,117q33.93-.24,67.88,0a12.64,12.64,0,0,1,.64,25.24c-11.55.43-23.12.12-34.68.12Z" transform="translate(0.01)"/></svg>